<svg xmlns="http://www.w3.org/2000/svg" viewBox="0 0 800 560" role="img" aria-labelledby="title desc">
  <title id="title">Home service illustration</title>
  <desc id="desc">A stylized house with landscaping, tools, and a warm color palette.</desc>
  <rect width="800" height="560" rx="40" fill="#f6f0e5"/>
  <circle cx="665" cy="115" r="58" fill="#f0c780"/>
  <path d="M95 412h610v79H95z" fill="#adc596"/>
  <path d="M170 255 400 92l230 163v165H170z" fill="#f8f4ec" stroke="#355a47" stroke-width="8"/>
  <path d="M145 266 400 78l255 188" fill="none" stroke="#914d2f" stroke-linecap="round" stroke-linejoin="round" stroke-width="18"/>
  <path d="M199 261h402v130H199z" fill="#d9e8db"/>
  <path d="M347 282h106v138H347z" fill="#b96a3f"/>
  <path d="M239 294h70v73H239zM494 294h70v73h-70z" fill="#fff8ef" stroke="#355a47" stroke-width="8"/>
  <path d="M255 294v73M529 294v73M239 330h70M494 330h70" stroke="#355a47" stroke-width="6"/>
  <path d="M372 346h26" stroke="#f3dcb6" stroke-linecap="round" stroke-width="7"/>
  <path d="M383 418h34l53 64H330z" fill="#dcccb1"/>
  <path d="M102 445h598" stroke="#6c8b73" stroke-linecap="round" stroke-width="10"/>
  <circle cx="167" cy="438" r="36" fill="#789875"/>
  <circle cx="631" cy="438" r="42" fill="#789875"/>
  <path d="M115 475c47-23 118-23 165 0M515 475c45-25 118-25 168 0" fill="none" stroke="#6c8b73" stroke-linecap="round" stroke-width="10"/>
  <path d="M95 458c77-37 160-39 243 0M455 458c73-34 160-40 250 0" fill="none" stroke="#94ae88" stroke-linecap="round" stroke-width="10"/>
  <path d="M87 421c14-26 51-33 74-13 25 22 23 65-2 84-16 12-45 9-59-9-14-18-15-43-13-62z" fill="#e4a56f"/>
  <path d="M703 421c-14-26-51-33-74-13-25 22-23 65 2 84 16 12 45 9 59-9 14-18 15-43 13-62z" fill="#355a47"/>
</svg>
