<svg xmlns="http://www.w3.org/2000/svg" viewBox="0 0 700 520" role="img" aria-labelledby="title desc">
  <title id="title">House hotspot illustration</title>
  <desc id="desc">A home with highlighted roof, siding, entry, and walkway areas for clickable hotspots.</desc>
  <rect width="700" height="520" rx="28" fill="#f6f0e5"/>
  <rect x="0" y="395" width="700" height="125" fill="#b7cda5"/>
  <path d="M130 225 350 70l220 155v175H130z" fill="#fbf7f0" stroke="#355a47" stroke-width="6"/>
  <path d="M102 233 350 52l248 181" fill="none" stroke="#914d2f" stroke-linecap="round" stroke-linejoin="round" stroke-width="16"/>
  <rect x="160" y="188" width="368" height="188" fill="#d8e5d9" opacity=".55"/>
  <rect x="214" y="96" width="257" height="88" rx="18" fill="#bb6c3d" opacity=".2" stroke="#bb6c3d" stroke-width="4" stroke-dasharray="10 10"/>
  <rect x="161" y="188" width="368" height="188" rx="18" fill="#355a47" opacity=".12" stroke="#355a47" stroke-width="4" stroke-dasharray="10 10"/>
  <rect x="321" y="215" width="87" height="157" rx="18" fill="#bb6c3d" opacity=".18" stroke="#bb6c3d" stroke-width="4" stroke-dasharray="10 10"/>
  <rect x="80" y="389" width="530" height="108" rx="18" fill="#7e9f7d" opacity=".16" stroke="#7e9f7d" stroke-width="4" stroke-dasharray="10 10"/>
  <rect x="225" y="250" width="78" height="82" fill="#fff8ef" stroke="#355a47" stroke-width="6"/>
  <rect x="447" y="250" width="78" height="82" fill="#fff8ef" stroke="#355a47" stroke-width="6"/>
  <path d="M350 214v158" stroke="#f4d9bb" stroke-width="8"/>
  <path d="M225 291h78M447 291h78M264 250v82M486 250v82" stroke="#355a47" stroke-width="5"/>
  <path d="M110 448c117-53 229-53 352 0" fill="none" stroke="#91aa82" stroke-linecap="round" stroke-width="12"/>
  <circle cx="88" cy="448" r="32" fill="#76906f"/>
  <circle cx="628" cy="451" r="36" fill="#76906f"/>
  <text x="232" y="146" fill="#914d2f" font-family="Trebuchet MS, sans-serif" font-size="22" font-weight="700">Roof</text>
  <text x="198" y="286" fill="#244736" font-family="Trebuchet MS, sans-serif" font-size="22" font-weight="700">Siding</text>
  <text x="338" y="300" fill="#914d2f" font-family="Trebuchet MS, sans-serif" font-size="20" font-weight="700">Entry</text>
  <text x="256" y="450" fill="#5c785f" font-family="Trebuchet MS, sans-serif" font-size="22" font-weight="700">Walkway</text>
</svg>
